REM DIRINDEX 1\2,1\3,1\4
REM DIRNAME folder01,folder02,folder03,folder04
TITLE ""
FILE "DISC3Track30.mp3" MP3
  TRACK 01 AUDIO
    TITLE "0:"
    INDEX 01 00:00:00
  TRACK 02 AUDIO
    TITLE "4:cjc105_5568"
    INDEX 01 00:00:13
  TRACK 03 AUDIO
    TITLE "0:"
    INDEX 01 00:05:20
  TRACK 04 AUDIO
    TITLE "2:cjc105_5569"
    INDEX 01 00:05:67
  TRACK 05 AUDIO
    TITLE "3:cjc105_5570"
    INDEX 01 00:06:67
  TRACK 06 AUDIO
    TITLE "0:"
    INDEX 01 00:07:66
  TRACK 07 AUDIO
    TITLE "2:cjc105_5571"
    INDEX 01 00:08:09
  TRACK 08 AUDIO
    TITLE "3:cjc105_5572"
    INDEX 01 00:08:70
  TRACK 09 AUDIO
    TITLE "0:"
    INDEX 01 00:09:65
  TRACK 10 AUDIO
    TITLE "2:cjc105_5573"
    INDEX 01 00:10:04
  TRACK 11 AUDIO
    TITLE "3:cjc105_5574"
    INDEX 01 00:11:23
  TRACK 12 AUDIO
    TITLE "0:"
    INDEX 01 00:12:40
  TRACK 13 AUDIO
    TITLE "2:cjc105_5575"
    INDEX 01 00:12:60
  TRACK 14 AUDIO
    TITLE "3:cjc105_5576"
    INDEX 01 00:14:00
  TRACK 15 AUDIO
    TITLE "0:"
    INDEX 01 00:15:03
  TRACK 16 AUDIO
    TITLE "2:cjc105_5577"
    INDEX 01 00:15:23
  TRACK 17 AUDIO
    TITLE "3:cjc105_5578"
    INDEX 01 00:16:24
  TRACK 18 AUDIO
    TITLE "0:"
    INDEX 01 00:17:37
  TRACK 19 AUDIO
    TITLE "2:cjc105_5579"
    INDEX 01 00:17:53
  TRACK 20 AUDIO
    TITLE "3:cjc105_5580"
    INDEX 01 00:18:48
  TRACK 21 AUDIO
    TITLE "0:"
    INDEX 01 00:19:60
  TRACK 22 AUDIO
    TITLE "2:cjc105_5581"
    INDEX 01 00:20:06
  TRACK 23 AUDIO
    TITLE "3:cjc105_5582"
    INDEX 01 00:21:00
  TRACK 24 AUDIO
    TITLE "0:"
    INDEX 01 00:22:09
  TRACK 25 AUDIO
    TITLE "2:cjc105_5583"
    INDEX 01 00:22:27
  TRACK 26 AUDIO
    TITLE "3:cjc105_5584"
    INDEX 01 00:23:38
  TRACK 27 AUDIO
    TITLE "0:"
    INDEX 01 00:24:51
  TRACK 28 AUDIO
    TITLE "2:cjc105_5585"
    INDEX 01 00:24:67
  TRACK 29 AUDIO
    TITLE "3:cjc105_5586"
    INDEX 01 00:26:03
  TRACK 30 AUDIO
    TITLE "0:"
    INDEX 01 00:27:28
  TRACK 31 AUDIO
    TITLE "2:cjc105_5587"
    INDEX 01 00:27:47
  TRACK 32 AUDIO
    TITLE "3:cjc105_5588"
    INDEX 01 00:28:45
  TRACK 33 AUDIO
    TITLE "0:"
    INDEX 01 00:29:56
  TRACK 34 AUDIO
    TITLE "2:cjc105_5589"
    INDEX 01 00:29:70
  TRACK 35 AUDIO
    TITLE "3:cjc105_5590"
    INDEX 01 00:31:08
  TRACK 36 AUDIO
    TITLE "0:"
    INDEX 01 00:32:23
  TRACK 37 AUDIO
    TITLE "2:cjc105_5591"
    INDEX 01 00:32:43
  TRACK 38 AUDIO
    TITLE "3:cjc105_5592"
    INDEX 01 00:33:40
  TRACK 39 AUDIO
    TITLE "0:"
    INDEX 01 00:34:65
  TRACK 40 AUDIO
    TITLE "2:cjc105_5593"
    INDEX 01 00:35:08
  TRACK 41 AUDIO
    TITLE "3:cjc105_5594"
    INDEX 01 00:36:05
  TRACK 42 AUDIO
    TITLE "0:"
    INDEX 01 00:37:05
  TRACK 43 AUDIO
    TITLE "2:cjc105_5595"
    INDEX 01 00:37:24
  TRACK 44 AUDIO
    TITLE "3:cjc105_5596"
    INDEX 01 00:38:53
  TRACK 45 AUDIO
    TITLE "0:"
    INDEX 01 00:40:11
  TRACK 46 AUDIO
    TITLE "2:cjc105_5597"
    INDEX 01 00:40:26
  TRACK 47 AUDIO
    TITLE "3:cjc105_5598"
    INDEX 01 00:41:61
  TRACK 48 AUDIO
    TITLE "0:"
    INDEX 01 00:43:11
  TRACK 49 AUDIO
    TITLE "2:cjc105_5599"
    INDEX 01 00:43:31
  TRACK 50 AUDIO
    TITLE "3:cjc105_5600"
    INDEX 01 00:44:54
  TRACK 51 AUDIO
    TITLE "0:"
    INDEX 01 00:46:02
  TRACK 52 AUDIO
    TITLE "2:cjc105_5601"
    INDEX 01 00:46:21
  TRACK 53 AUDIO
    TITLE "3:cjc105_5602"
    INDEX 01 00:47:17
  TRACK 54 AUDIO
    TITLE "0:"
    INDEX 01 00:48:55
  TRACK 55 AUDIO
    TITLE "2:cjc105_5603"
    INDEX 01 00:48:73
  TRACK 56 AUDIO
    TITLE "3:cjc105_5604"
    INDEX 01 00:50:31
  TRACK 57 AUDIO
    TITLE "0:"
    INDEX 01 00:51:56
  TRACK 58 AUDIO
    TITLE "2:cjc105_5605"
    INDEX 01 00:52:00
  TRACK 59 AUDIO
    TITLE "3:cjc105_5606"
    INDEX 01 00:53:27
  TRACK 60 AUDIO
    TITLE "0:"
    INDEX 01 00:54:62
  TRACK 61 AUDIO
    TITLE "2:cjc105_5607"
    INDEX 01 00:55:08
  TRACK 62 AUDIO
    TITLE "3:cjc105_5608"
    INDEX 01 00:56:12
  TRACK 63 AUDIO
    TITLE "0:"
    INDEX 01 00:57:39
  TRACK 64 AUDIO
    TITLE "2:cjc105_5609"
    INDEX 01 00:57:60
  TRACK 65 AUDIO
    TITLE "3:cjc105_5610"
    INDEX 01 00:59:38
  TRACK 66 AUDIO
    TITLE "0:"
    INDEX 01 01:01:23
  TRACK 67 AUDIO
    TITLE "2:cjc105_5611"
    INDEX 01 01:01:40
  TRACK 68 AUDIO
    TITLE "3:cjc105_5612"
    INDEX 01 01:02:44
  TRACK 69 AUDIO
    TITLE "0:"
    INDEX 01 01:03:55
  TRACK 70 AUDIO
    TITLE "2:cjc105_5613"
    INDEX 01 01:04:00
  TRACK 71 AUDIO
    TITLE "3:cjc105_5614"
    INDEX 01 01:05:71
  TRACK 72 AUDIO
    TITLE "0:"
    INDEX 01 01:08:23
  TRACK 73 AUDIO
    TITLE "2:cjc105_5615"
    INDEX 01 01:08:42
  TRACK 74 AUDIO
    TITLE "3:cjc105_5616"
    INDEX 01 01:09:67
  TRACK 75 AUDIO
    TITLE "0:"
    INDEX 01 01:11:09
  TRACK 76 AUDIO
    TITLE "2:cjc105_5617"
    INDEX 01 01:11:27
  TRACK 77 AUDIO
    TITLE "3:cjc105_5618"
    INDEX 01 01:12:50
  TRACK 78 AUDIO
    TITLE "0:"
    INDEX 01 01:13:69
  TRACK 79 AUDIO
    TITLE "2:cjc105_5619"
    INDEX 01 01:14:16
  TRACK 80 AUDIO
    TITLE "3:cjc105_5620"
    INDEX 01 01:15:11
  TRACK 81 AUDIO
    TITLE "0:"
    INDEX 01 01:16:34
  TRACK 82 AUDIO
    TITLE "2:cjc105_5621"
    INDEX 01 01:16:54
  TRACK 83 AUDIO
    TITLE "3:cjc105_5622"
    INDEX 01 01:18:17
  TRACK 84 AUDIO
    TITLE "0:"
    INDEX 01 01:19:50
  TRACK 85 AUDIO
    TITLE "2:cjc105_5623"
    INDEX 01 01:19:70
  TRACK 86 AUDIO
    TITLE "3:cjc105_5624"
    INDEX 01 01:21:00
  TRACK 87 AUDIO
    TITLE "0:"
    INDEX 01 01:22:13
  TRACK 88 AUDIO
    TITLE "2:cjc105_5625"
    INDEX 01 01:22:33
  TRACK 89 AUDIO
    TITLE "3:cjc105_5626"
    INDEX 01 01:23:34
  TRACK 90 AUDIO
    TITLE "0:"
    INDEX 01 01:24:61
  TRACK 91 AUDIO
    TITLE "2:cjc105_5627"
    INDEX 01 01:25:08
  TRACK 92 AUDIO
    TITLE "3:cjc105_5628"
    INDEX 01 01:26:25
  TRACK 93 AUDIO
    TITLE "0:"
    INDEX 01 01:27:42
  TRACK 94 AUDIO
    TITLE "2:cjc105_5629"
    INDEX 01 01:27:63
  TRACK 95 AUDIO
    TITLE "3:cjc105_5630"
    INDEX 01 01:28:72
  TRACK 96 AUDIO
    TITLE "0:"
    INDEX 01 01:30:36
  TRACK 97 AUDIO
    TITLE "2:cjc105_5631"
    INDEX 01 01:30:56
  TRACK 98 AUDIO
    TITLE "3:cjc105_5632"
    INDEX 01 01:31:59
  TRACK 99 AUDIO
    TITLE "0:"
    INDEX 01 01:33:15
  TRACK 100 AUDIO
    TITLE "2:cjc105_5633"
    INDEX 01 01:33:33
  TRACK 101 AUDIO
    TITLE "3:cjc105_5634"
    INDEX 01 01:34:38
  TRACK 102 AUDIO
    TITLE "0:"
    INDEX 01 01:35:37
  TRACK 103 AUDIO
    TITLE "2:cjc105_5635"
    INDEX 01 01:35:55
  TRACK 104 AUDIO
    TITLE "3:cjc105_5636"
    INDEX 01 01:36:50
  TRACK 105 AUDIO
    TITLE "0:"
    INDEX 01 01:38:12
  TRACK 106 AUDIO
    TITLE "2:cjc105_5637"
    INDEX 01 01:38:30
  TRACK 107 AUDIO
    TITLE "3:cjc105_5638"
    INDEX 01 01:39:37
  TRACK 108 AUDIO
    TITLE "0:"
    INDEX 01 01:40:68
  TRACK 109 AUDIO
    TITLE "2:cjc105_5639"
    INDEX 01 01:41:12
  TRACK 110 AUDIO
    TITLE "3:cjc105_5640"
    INDEX 01 01:42:63
  TRACK 111 AUDIO
    TITLE "0:"
    INDEX 01 01:44:36
